<svg width="235" height="234" viewBox="0 0 235 234" fill="none" xmlns="http://www.w3.org/2000/svg">
<rect x="0.5" width="234" height="234" rx="24.96" fill="#25136D"/>
<path d="M94.5548 117.975L110.501 133.921L142.395 102.028M85.2659 59.7456C90.9852 59.2891 96.4148 57.0402 100.782 53.3191C105.717 49.1113 111.99 46.8 118.475 46.8C124.96 46.8 131.233 49.1113 136.168 53.3191C140.535 57.0402 145.964 59.2891 151.684 59.7456C158.148 60.2599 164.218 63.0611 168.803 67.6465C173.389 72.232 176.19 78.3015 176.704 84.7659C177.161 90.4852 179.409 95.9148 183.131 100.282C187.338 105.217 189.65 111.49 189.65 117.975C189.65 124.46 187.338 130.733 183.131 135.668C179.409 140.035 177.161 145.464 176.704 151.184C176.19 157.648 173.389 163.718 168.803 168.303C164.218 172.889 158.148 175.69 151.684 176.204C145.964 176.661 140.535 178.909 136.168 182.631C131.233 186.838 124.96 189.15 118.475 189.15C111.99 189.15 105.717 186.838 100.782 182.631C96.4148 178.909 90.9852 176.661 85.2659 176.204C78.8015 175.69 72.732 172.889 68.1465 168.303C63.5611 163.718 60.7599 157.648 60.2456 151.184C59.7891 145.464 57.5402 140.035 53.8191 135.668C49.6113 130.733 47.3 124.46 47.3 117.975C47.3 111.49 49.6113 105.217 53.8191 100.282C57.5402 95.9148 59.7891 90.4852 60.2456 84.7659C60.7599 78.3015 63.5611 72.232 68.1465 67.6465C72.732 63.0611 78.8015 60.2599 85.2659 59.7456V59.7456Z" stroke="white" stroke-width="15.9467" stroke-linecap="round" stroke-linejoin="round"/>
</svg>
